<?xml version="1.0" encoding="utf-8" standalone="no"?>
<!DOCTYPE svg PUBLIC "-//W3C//DTD SVG 1.1//EN"
  "http://www.w3.org/Graphics/SVG/1.1/DTD/svg11.dtd">
<!-- Created with matplotlib (http://matplotlib.org/) -->
<svg height="432pt" version="1.1" viewBox="0 0 576 432" width="576pt" xmlns="http://www.w3.org/2000/svg" xmlns:xlink="http://www.w3.org/1999/xlink">
 <defs>
  <style type="text/css">
*{stroke-linecap:butt;stroke-linejoin:round;stroke-miterlimit:100000;}
  </style>
 </defs>
 <g id="figure_1">
  <g id="patch_1">
   <path d="M 0 432 
L 576 432 
L 576 0 
L 0 0 
z
" style="fill:#ffffff;"/>
  </g>
  <g id="axes_1">
   <g id="patch_2">
    <path d="M 72 345.6 
L 518.4 345.6 
L 518.4 43.2 
L 72 43.2 
z
" style="fill:#ffffff;"/>
   </g>
   <g id="patch_3">
    <path clip-path="url(#pc80665e3c3)" d="M 72 311.132448 
L 80.752941 311.132448 
L 80.752941 303.391242 
L 72 303.391242 
z
" style="fill:#008000;stroke:#008000;stroke-linejoin:miter;"/>
   </g>
   <g id="patch_4">
    <path clip-path="url(#pc80665e3c3)" d="M 86.588235 317.914675 
L 95.341176 317.914675 
L 95.341176 308.224853 
L 86.588235 308.224853 
z
" style="fill:#008000;stroke:#008000;stroke-linejoin:miter;"/>
   </g>
   <g id="patch_5">
    <path clip-path="url(#pc80665e3c3)" d="M 101.176471 315.976758 
L 109.929412 315.976758 
L 109.929412 307.266566 
L 101.176471 307.266566 
z
" style="fill:#ff0000;stroke:#ff0000;stroke-linejoin:miter;"/>
   </g>
   <g id="patch_6">
    <path clip-path="url(#pc80665e3c3)" d="M 115.764706 137.5488 
L 124.517647 137.5488 
L 124.517647 115.776 
L 115.764706 115.776 
z
" style="fill:#008000;stroke:#008000;stroke-linejoin:miter;"/>
   </g>
   <g id="patch_7">
    <path clip-path="url(#pc80665e3c3)" d="M 130.352941 190.7712 
L 139.105882 190.7712 
L 139.105882 139.968 
L 130.352941 139.968 
z
" style="fill:#008000;stroke:#008000;stroke-linejoin:miter;"/>
   </g>
   <g id="patch_8">
    <path clip-path="url(#pc80665e3c3)" d="M 174.117647 189.5616 
L 182.870588 189.5616 
L 182.870588 187.1424 
L 174.117647 187.1424 
z
" style="fill:#ff0000;stroke:#ff0000;stroke-linejoin:miter;"/>
   </g>
   <g id="patch_9">
    <path clip-path="url(#pc80665e3c3)" d="M 188.705882 191.9808 
L 197.458824 191.9808 
L 197.458824 190.7712 
L 188.705882 190.7712 
z
" style="fill:#ff0000;stroke:#ff0000;stroke-linejoin:miter;"/>
   </g>
   <g id="patch_10">
    <path clip-path="url(#pc80665e3c3)" d="M 203.294118 189.5616 
L 212.047059 189.5616 
L 212.047059 164.16 
L 203.294118 164.16 
z
" style="fill:#ff0000;stroke:#ff0000;stroke-linejoin:miter;"/>
   </g>
   <g id="patch_11">
    <path clip-path="url(#pc80665e3c3)" d="M 217.882353 164.16 
L 226.635294 164.16 
L 226.635294 155.6928 
L 217.882353 155.6928 
z
" style="fill:#ff0000;stroke:#ff0000;stroke-linejoin:miter;"/>
   </g>
   <g id="patch_12">
    <path clip-path="url(#pc80665e3c3)" d="M 232.470588 155.6928 
L 241.223529 155.6928 
L 241.223529 113.3568 
L 232.470588 113.3568 
z
" style="fill:#ff0000;stroke:#ff0000;stroke-linejoin:miter;"/>
   </g>
   <g id="patch_13">
    <path clip-path="url(#pc80665e3c3)" d="M 276.235294 120.6144 
L 284.988235 120.6144 
L 284.988235 112.1472 
L 276.235294 112.1472 
z
" style="fill:#ff0000;stroke:#ff0000;stroke-linejoin:miter;"/>
   </g>
   <g id="patch_14">
    <path clip-path="url(#pc80665e3c3)" d="M 290.823529 129.0816 
L 299.576471 129.0816 
L 299.576471 110.9376 
L 290.823529 110.9376 
z
" style="fill:#008000;stroke:#008000;stroke-linejoin:miter;"/>
   </g>
   <g id="patch_15">
    <path clip-path="url(#pc80665e3c3)" d="M 305.411765 147.2256 
L 314.164706 147.2256 
L 314.164706 138.7584 
L 305.411765 138.7584 
z
" style="fill:#008000;stroke:#008000;stroke-linejoin:miter;"/>
   </g>
   <g id="patch_16">
    <path clip-path="url(#pc80665e3c3)" d="M 320 155.6928 
L 328.752941 155.6928 
L 328.752941 148.4352 
L 320 148.4352 
z
" style="fill:#008000;stroke:#008000;stroke-linejoin:miter;"/>
   </g>
   <g id="patch_17">
    <path clip-path="url(#pc80665e3c3)" d="M 334.588235 170.208 
L 343.341176 170.208 
L 343.341176 158.112 
L 334.588235 158.112 
z
" style="fill:#008000;stroke:#008000;stroke-linejoin:miter;"/>
   </g>
   <g id="patch_18">
    <path clip-path="url(#pc80665e3c3)" d="M 378.352941 172.6272 
L 387.105882 172.6272 
L 387.105882 156.9024 
L 378.352941 156.9024 
z
" style="fill:#008000;stroke:#008000;stroke-linejoin:miter;"/>
   </g>
   <g id="patch_19">
    <path clip-path="url(#pc80665e3c3)" d="M 392.941176 166.5792 
L 401.694118 166.5792 
L 401.694118 147.2256 
L 392.941176 147.2256 
z
" style="fill:#ff0000;stroke:#ff0000;stroke-linejoin:miter;"/>
   </g>
   <g id="patch_20">
    <path clip-path="url(#pc80665e3c3)" d="M 407.529412 146.016 
L 416.282353 146.016 
L 416.282353 129.0816 
L 407.529412 129.0816 
z
" style="fill:#ff0000;stroke:#ff0000;stroke-linejoin:miter;"/>
   </g>
   <g id="patch_21">
    <path clip-path="url(#pc80665e3c3)" d="M 422.117647 139.968 
L 430.870588 139.968 
L 430.870588 131.5008 
L 422.117647 131.5008 
z
" style="fill:#008000;stroke:#008000;stroke-linejoin:miter;"/>
   </g>
   <g id="patch_22">
    <path clip-path="url(#pc80665e3c3)" d="M 436.705882 138.7584 
L 445.458824 138.7584 
L 445.458824 138.7584 
L 436.705882 138.7584 
z
" style="fill:#ff0000;stroke:#ff0000;stroke-linejoin:miter;"/>
   </g>
   <g id="patch_23">
    <path clip-path="url(#pc80665e3c3)" d="M 480.470588 136.3392 
L 489.223529 136.3392 
L 489.223529 131.5008 
L 480.470588 131.5008 
z
" style="fill:#ff0000;stroke:#ff0000;stroke-linejoin:miter;"/>
   </g>
   <g id="patch_24">
    <path clip-path="url(#pc80665e3c3)" d="M 495.058824 136.3392 
L 503.811765 136.3392 
L 503.811765 131.5008 
L 495.058824 131.5008 
z
" style="fill:#008000;stroke:#008000;stroke-linejoin:miter;"/>
   </g>
   <g id="patch_25">
    <path clip-path="url(#pc80665e3c3)" d="M 509.647059 139.968 
L 518.4 139.968 
L 518.4 133.92 
L 509.647059 133.92 
z
" style="fill:#ff0000;stroke:#ff0000;stroke-linejoin:miter;"/>
   </g>
   <g id="line2d_1">
    <path clip-path="url(#pc80665e3c3)" d="M 76.376471 320.811618 
L 76.376471 303.391242 
" style="fill:none;stroke:#008000;stroke-linecap:square;stroke-width:0.5;"/>
   </g>
   <g id="line2d_2">
    <path clip-path="url(#pc80665e3c3)" d="M 90.964706 320.810974 
L 90.964706 301.452626 
" style="fill:none;stroke:#008000;stroke-linecap:square;stroke-width:0.5;"/>
   </g>
   <g id="line2d_3">
    <path clip-path="url(#pc80665e3c3)" d="M 105.552941 317.914722 
L 105.552941 306.297584 
" style="fill:none;stroke:#ff0000;stroke-linecap:square;stroke-width:0.5;"/>
   </g>
   <g id="line2d_4">
    <path clip-path="url(#pc80665e3c3)" d="M 120.141176 138.7584 
L 120.141176 115.776 
" style="fill:none;stroke:#008000;stroke-linecap:square;stroke-width:0.5;"/>
   </g>
   <g id="line2d_5">
    <path clip-path="url(#pc80665e3c3)" d="M 134.729412 214.9632 
L 134.729412 129.0816 
" style="fill:none;stroke:#008000;stroke-linecap:square;stroke-width:0.5;"/>
   </g>
   <g id="line2d_6">
    <path clip-path="url(#pc80665e3c3)" d="M 178.494118 202.8672 
L 178.494118 177.4656 
" style="fill:none;stroke:#ff0000;stroke-linecap:square;stroke-width:0.5;"/>
   </g>
   <g id="line2d_7">
    <path clip-path="url(#pc80665e3c3)" d="M 193.082353 202.8672 
L 193.082353 188.352 
" style="fill:none;stroke:#ff0000;stroke-linecap:square;stroke-width:0.5;"/>
   </g>
   <g id="line2d_8">
    <path clip-path="url(#pc80665e3c3)" d="M 207.670588 190.7712 
L 207.670588 159.3216 
" style="fill:none;stroke:#ff0000;stroke-linecap:square;stroke-width:0.5;"/>
   </g>
   <g id="line2d_9">
    <path clip-path="url(#pc80665e3c3)" d="M 222.258824 171.4176 
L 222.258824 144.8064 
" style="fill:none;stroke:#ff0000;stroke-linecap:square;stroke-width:0.5;"/>
   </g>
   <g id="line2d_10">
    <path clip-path="url(#pc80665e3c3)" d="M 236.847059 159.3216 
L 236.847059 108.5184 
" style="fill:none;stroke:#ff0000;stroke-linecap:square;stroke-width:0.5;"/>
   </g>
   <g id="line2d_11">
    <path clip-path="url(#pc80665e3c3)" d="M 280.611765 127.872 
L 280.611765 100.0512 
" style="fill:none;stroke:#ff0000;stroke-linecap:square;stroke-width:0.5;"/>
   </g>
   <g id="line2d_12">
    <path clip-path="url(#pc80665e3c3)" d="M 295.2 133.92 
L 295.2 109.728 
" style="fill:none;stroke:#008000;stroke-linecap:square;stroke-width:0.5;"/>
   </g>
   <g id="line2d_13">
    <path clip-path="url(#pc80665e3c3)" d="M 309.788235 150.8544 
L 309.788235 132.7104 
" style="fill:none;stroke:#008000;stroke-linecap:square;stroke-width:0.5;"/>
   </g>
   <g id="line2d_14">
    <path clip-path="url(#pc80665e3c3)" d="M 324.376471 170.208 
L 324.376471 147.2256 
" style="fill:none;stroke:#008000;stroke-linecap:square;stroke-width:0.5;"/>
   </g>
   <g id="line2d_15">
    <path clip-path="url(#pc80665e3c3)" d="M 338.964706 171.4176 
L 338.964706 156.9024 
" style="fill:none;stroke:#008000;stroke-linecap:square;stroke-width:0.5;"/>
   </g>
   <g id="line2d_16">
    <path clip-path="url(#pc80665e3c3)" d="M 382.729412 176.256 
L 382.729412 155.6928 
" style="fill:none;stroke:#008000;stroke-linecap:square;stroke-width:0.5;"/>
   </g>
   <g id="line2d_17">
    <path clip-path="url(#pc80665e3c3)" d="M 397.317647 170.208 
L 397.317647 146.016 
" style="fill:none;stroke:#ff0000;stroke-linecap:square;stroke-width:0.5;"/>
   </g>
   <g id="line2d_18">
    <path clip-path="url(#pc80665e3c3)" d="M 411.905882 147.2256 
L 411.905882 107.3088 
" style="fill:none;stroke:#ff0000;stroke-linecap:square;stroke-width:0.5;"/>
   </g>
   <g id="line2d_19">
    <path clip-path="url(#pc80665e3c3)" d="M 426.494118 147.2256 
L 426.494118 123.0336 
" style="fill:none;stroke:#008000;stroke-linecap:square;stroke-width:0.5;"/>
   </g>
   <g id="line2d_20">
    <path clip-path="url(#pc80665e3c3)" d="M 441.082353 146.016 
L 441.082353 133.92 
" style="fill:none;stroke:#ff0000;stroke-linecap:square;stroke-width:0.5;"/>
   </g>
   <g id="line2d_21">
    <path clip-path="url(#pc80665e3c3)" d="M 484.847059 144.8064 
L 484.847059 114.5664 
" style="fill:none;stroke:#ff0000;stroke-linecap:square;stroke-width:0.5;"/>
   </g>
   <g id="line2d_22">
    <path clip-path="url(#pc80665e3c3)" d="M 499.435294 146.016 
L 499.435294 127.872 
" style="fill:none;stroke:#008000;stroke-linecap:square;stroke-width:0.5;"/>
   </g>
   <g id="line2d_23">
    <path clip-path="url(#pc80665e3c3)" d="M 514.023529 148.4352 
L 514.023529 132.7104 
" style="fill:none;stroke:#ff0000;stroke-linecap:square;stroke-width:0.5;"/>
   </g>
   <g id="patch_26">
    <path d="M 72 43.2 
L 518.4 43.2 
" style="fill:none;stroke:#000000;stroke-linecap:square;stroke-linejoin:miter;"/>
   </g>
   <g id="patch_27">
    <path d="M 518.4 345.6 
L 518.4 43.2 
" style="fill:none;stroke:#000000;stroke-linecap:square;stroke-linejoin:miter;"/>
   </g>
   <g id="patch_28">
    <path d="M 72 345.6 
L 518.4 345.6 
" style="fill:none;stroke:#000000;stroke-linecap:square;stroke-linejoin:miter;"/>
   </g>
   <g id="patch_29">
    <path d="M 72 345.6 
L 72 43.2 
" style="fill:none;stroke:#000000;stroke-linecap:square;stroke-linejoin:miter;"/>
   </g>
   <g id="matplotlib.axis_1">
    <g id="xtick_1">
     <g id="line2d_24">
      <path clip-path="url(#pc80665e3c3)" d="M 76.376471 345.6 
L 76.376471 43.2 
" style="fill:none;stroke:#000000;stroke-dasharray:1.000000,3.000000;stroke-dashoffset:0.0;stroke-width:0.5;"/>
     </g>
     <g id="line2d_25">
      <defs>
       <path d="M 0 0 
L 0 -4 
" id="mce7126e2df" style="stroke:#000000;stroke-width:0.5;"/>
      </defs>
      <g>
       <use style="stroke:#000000;stroke-width:0.5;" x="76.37647059" xlink:href="#mce7126e2df" y="345.6"/>
      </g>
     </g>
     <g id="line2d_26">
      <defs>
       <path d="M 0 0 
L 0 4 
" id="m071a18489b" style="stroke:#000000;stroke-width:0.5;"/>
      </defs>
      <g>
       <use style="stroke:#000000;stroke-width:0.5;" x="76.37647059" xlink:href="#m071a18489b" y="43.2"/>
      </g>
     </g>
     <g id="text_1">
      <!-- 06-20-2016 -->
      <defs>
       <path d="M 36.375 26.265625 
L 7.625 26.265625 
L 7.625 33.640625 
L 36.375 33.640625 
z
" id="MicrosoftYaHei-2d"/>
       <path d="M 49.703125 65.921875 
Q 43.796875 68.953125 37.359375 68.953125 
Q 27.546875 68.953125 21.578125 60.40625 
Q 15.625 51.859375 15.53125 37.0625 
L 15.765625 37.0625 
Q 21.140625 47.46875 32.90625 47.46875 
Q 42.71875 47.46875 48.578125 41.0625 
Q 54.4375 34.671875 54.4375 24.078125 
Q 54.4375 12.984375 47.671875 5.859375 
Q 40.921875 -1.265625 30.421875 -1.265625 
Q 18.890625 -1.265625 12.328125 7.734375 
Q 5.765625 16.75 5.765625 33.296875 
Q 5.765625 53.328125 14.375 65.109375 
Q 23 76.90625 37.0625 76.90625 
Q 45.125 76.90625 49.703125 74.703125 
z
M 16.109375 24.75 
Q 16.109375 17.28125 20.09375 11.953125 
Q 24.078125 6.640625 30.671875 6.640625 
Q 36.921875 6.640625 40.828125 11.234375 
Q 44.734375 15.828125 44.734375 23.046875 
Q 44.734375 30.859375 41.046875 35.203125 
Q 37.359375 39.546875 30.5625 39.546875 
Q 24.125 39.546875 20.109375 35.15625 
Q 16.109375 30.765625 16.109375 24.75 
" id="MicrosoftYaHei-36"/>
       <path d="M 52.59375 0 
L 9.234375 0 
L 9.234375 8.25 
L 26.171875 8.25 
L 26.171875 65.671875 
L 8.796875 60.640625 
L 8.796875 69.4375 
L 35.6875 77.25 
L 35.6875 8.25 
L 52.59375 8.25 
z
" id="MicrosoftYaHei-31"/>
       <path d="M 4.4375 36.328125 
Q 4.4375 56.34375 11.078125 66.625 
Q 17.71875 76.90625 30.328125 76.90625 
Q 54.34375 76.90625 54.34375 38.140625 
Q 54.34375 19 47.578125 8.859375 
Q 40.828125 -1.265625 28.609375 -1.265625 
Q 17.09375 -1.265625 10.765625 8.34375 
Q 4.4375 17.96875 4.4375 36.328125 
M 14.203125 36.765625 
Q 14.203125 6.640625 29.5 6.640625 
Q 44.53125 6.640625 44.53125 37.25 
Q 44.53125 68.953125 29.78125 68.953125 
Q 14.203125 68.953125 14.203125 36.765625 
" id="MicrosoftYaHei-30"/>
       <path d="M 51.171875 0 
L 5.171875 0 
L 5.171875 8.296875 
L 27.15625 30.21875 
Q 36.234375 39.3125 39.3125 44.609375 
Q 42.390625 49.90625 42.390625 55.5625 
Q 42.390625 62.015625 38.765625 65.453125 
Q 35.15625 68.890625 28.328125 68.890625 
Q 18.21875 68.890625 9.03125 60.296875 
L 9.03125 70.015625 
Q 17.96875 76.90625 29.828125 76.90625 
Q 40.046875 76.90625 45.953125 71.390625 
Q 51.859375 65.875 51.859375 56.546875 
Q 51.859375 49.515625 48.0625 42.75 
Q 44.28125 35.984375 33.734375 25.53125 
L 16.5 8.6875 
L 16.5 8.5 
L 51.171875 8.5 
z
" id="MicrosoftYaHei-32"/>
      </defs>
      <g transform="translate(27.1180863873 403.531918085)rotate(-45.0)scale(0.12 -0.12)">
       <use xlink:href="#MicrosoftYaHei-30"/>
       <use x="58.642578125" xlink:href="#MicrosoftYaHei-36"/>
       <use x="117.28515625" xlink:href="#MicrosoftYaHei-2d"/>
       <use x="160.546875" xlink:href="#MicrosoftYaHei-32"/>
       <use x="219.189453125" xlink:href="#MicrosoftYaHei-30"/>
       <use x="277.83203125" xlink:href="#MicrosoftYaHei-2d"/>
       <use x="321.09375" xlink:href="#MicrosoftYaHei-32"/>
       <use x="379.736328125" xlink:href="#MicrosoftYaHei-30"/>
       <use x="438.37890625" xlink:href="#MicrosoftYaHei-31"/>
       <use x="497.021484375" xlink:href="#MicrosoftYaHei-36"/>
      </g>
     </g>
    </g>
    <g id="xtick_2">
     <g id="line2d_27">
      <path clip-path="url(#pc80665e3c3)" d="M 178.494118 345.6 
L 178.494118 43.2 
" style="fill:none;stroke:#000000;stroke-dasharray:1.000000,3.000000;stroke-dashoffset:0.0;stroke-width:0.5;"/>
     </g>
     <g id="line2d_28">
      <g>
       <use style="stroke:#000000;stroke-width:0.5;" x="178.494117649" xlink:href="#mce7126e2df" y="345.6"/>
      </g>
     </g>
     <g id="line2d_29">
      <g>
       <use style="stroke:#000000;stroke-width:0.5;" x="178.494117649" xlink:href="#m071a18489b" y="43.2"/>
      </g>
     </g>
     <g id="text_2">
      <!-- 06-27-2016 -->
      <defs>
       <path d="M 53.765625 72.3125 
L 24.171875 0 
L 14.265625 0 
L 42.390625 67.1875 
L 4.59375 67.1875 
L 4.59375 75.640625 
L 53.765625 75.640625 
z
" id="MicrosoftYaHei-37"/>
      </defs>
      <g transform="translate(129.235733447 403.531918085)rotate(-45.0)scale(0.12 -0.12)">
       <use xlink:href="#MicrosoftYaHei-30"/>
       <use x="58.642578125" xlink:href="#MicrosoftYaHei-36"/>
       <use x="117.28515625" xlink:href="#MicrosoftYaHei-2d"/>
       <use x="160.546875" xlink:href="#MicrosoftYaHei-32"/>
       <use x="219.189453125" xlink:href="#MicrosoftYaHei-37"/>
       <use x="277.83203125" xlink:href="#MicrosoftYaHei-2d"/>
       <use x="321.09375" xlink:href="#MicrosoftYaHei-32"/>
       <use x="379.736328125" xlink:href="#MicrosoftYaHei-30"/>
       <use x="438.37890625" xlink:href="#MicrosoftYaHei-31"/>
       <use x="497.021484375" xlink:href="#MicrosoftYaHei-36"/>
      </g>
     </g>
    </g>
    <g id="xtick_3">
     <g id="line2d_30">
      <path clip-path="url(#pc80665e3c3)" d="M 280.611765 345.6 
L 280.611765 43.2 
" style="fill:none;stroke:#000000;stroke-dasharray:1.000000,3.000000;stroke-dashoffset:0.0;stroke-width:0.5;"/>
     </g>
     <g id="line2d_31">
      <g>
       <use style="stroke:#000000;stroke-width:0.5;" x="280.611764709" xlink:href="#mce7126e2df" y="345.6"/>
      </g>
     </g>
     <g id="line2d_32">
      <g>
       <use style="stroke:#000000;stroke-width:0.5;" x="280.611764709" xlink:href="#m071a18489b" y="43.2"/>
      </g>
     </g>
     <g id="text_3">
      <!-- 07-04-2016 -->
      <defs>
       <path d="M 55.078125 19.625 
L 45.40625 19.625 
L 45.40625 0 
L 36.140625 0 
L 36.140625 19.625 
L 0.875 19.625 
L 0.875 25.828125 
L 34.328125 75.640625 
L 45.40625 75.640625 
L 45.40625 27.203125 
L 55.078125 27.203125 
z
M 36.140625 27.203125 
L 36.140625 58.890625 
Q 36.140625 62.25 36.328125 66.65625 
L 36.140625 66.65625 
Q 35.453125 64.796875 33.25 60.84375 
L 10.75 27.203125 
z
" id="MicrosoftYaHei-34"/>
      </defs>
      <g transform="translate(231.353380506 403.531918085)rotate(-45.0)scale(0.12 -0.12)">
       <use xlink:href="#MicrosoftYaHei-30"/>
       <use x="58.642578125" xlink:href="#MicrosoftYaHei-37"/>
       <use x="117.28515625" xlink:href="#MicrosoftYaHei-2d"/>
       <use x="160.546875" xlink:href="#MicrosoftYaHei-30"/>
       <use x="219.189453125" xlink:href="#MicrosoftYaHei-34"/>
       <use x="277.83203125" xlink:href="#MicrosoftYaHei-2d"/>
       <use x="321.09375" xlink:href="#MicrosoftYaHei-32"/>
       <use x="379.736328125" xlink:href="#MicrosoftYaHei-30"/>
       <use x="438.37890625" xlink:href="#MicrosoftYaHei-31"/>
       <use x="497.021484375" xlink:href="#MicrosoftYaHei-36"/>
      </g>
     </g>
    </g>
    <g id="xtick_4">
     <g id="line2d_33">
      <path clip-path="url(#pc80665e3c3)" d="M 382.729412 345.6 
L 382.729412 43.2 
" style="fill:none;stroke:#000000;stroke-dasharray:1.000000,3.000000;stroke-dashoffset:0.0;stroke-width:0.5;"/>
     </g>
     <g id="line2d_34">
      <g>
       <use style="stroke:#000000;stroke-width:0.5;" x="382.729411766" xlink:href="#mce7126e2df" y="345.6"/>
      </g>
     </g>
     <g id="line2d_35">
      <g>
       <use style="stroke:#000000;stroke-width:0.5;" x="382.729411766" xlink:href="#m071a18489b" y="43.2"/>
      </g>
     </g>
     <g id="text_4">
      <!-- 07-11-2016 -->
      <g transform="translate(333.471027563 403.531918085)rotate(-45.0)scale(0.12 -0.12)">
       <use xlink:href="#MicrosoftYaHei-30"/>
       <use x="58.642578125" xlink:href="#MicrosoftYaHei-37"/>
       <use x="117.28515625" xlink:href="#MicrosoftYaHei-2d"/>
       <use x="160.546875" xlink:href="#MicrosoftYaHei-31"/>
       <use x="219.189453125" xlink:href="#MicrosoftYaHei-31"/>
       <use x="277.83203125" xlink:href="#MicrosoftYaHei-2d"/>
       <use x="321.09375" xlink:href="#MicrosoftYaHei-32"/>
       <use x="379.736328125" xlink:href="#MicrosoftYaHei-30"/>
       <use x="438.37890625" xlink:href="#MicrosoftYaHei-31"/>
       <use x="497.021484375" xlink:href="#MicrosoftYaHei-36"/>
      </g>
     </g>
    </g>
    <g id="xtick_5">
     <g id="line2d_36">
      <path clip-path="url(#pc80665e3c3)" d="M 484.847059 345.6 
L 484.847059 43.2 
" style="fill:none;stroke:#000000;stroke-dasharray:1.000000,3.000000;stroke-dashoffset:0.0;stroke-width:0.5;"/>
     </g>
     <g id="line2d_37">
      <g>
       <use style="stroke:#000000;stroke-width:0.5;" x="484.847058825" xlink:href="#mce7126e2df" y="345.6"/>
      </g>
     </g>
     <g id="line2d_38">
      <g>
       <use style="stroke:#000000;stroke-width:0.5;" x="484.847058825" xlink:href="#m071a18489b" y="43.2"/>
      </g>
     </g>
     <g id="text_5">
      <!-- 07-18-2016 -->
      <defs>
       <path d="M 21.390625 39.796875 
Q 7.859375 46.09375 7.859375 58.0625 
Q 7.859375 66.40625 14.203125 71.65625 
Q 20.5625 76.90625 30.421875 76.90625 
Q 39.453125 76.90625 45.3125 71.96875 
Q 51.171875 67.046875 51.171875 59.234375 
Q 51.171875 46.625 37.0625 39.84375 
L 37.0625 39.65625 
Q 53.609375 33.6875 53.609375 19.34375 
Q 53.609375 9.90625 46.796875 4.3125 
Q 39.984375 -1.265625 27.78125 -1.265625 
Q 17.78125 -1.265625 11.46875 4.25 
Q 5.171875 9.765625 5.171875 18.5625 
Q 5.171875 33.015625 21.390625 39.59375 
z
M 41.5 58.109375 
Q 41.5 63.1875 38.328125 66.109375 
Q 35.15625 69.046875 29.734375 69.046875 
Q 24.65625 69.046875 21.09375 65.984375 
Q 17.53125 62.9375 17.53125 58.203125 
Q 17.53125 48.734375 29.390625 43.796875 
Q 41.5 48.828125 41.5 58.109375 
M 28.8125 35.25 
Q 14.796875 29.59375 14.796875 19.046875 
Q 14.796875 13.578125 18.890625 10.0625 
Q 23 6.546875 29.59375 6.546875 
Q 35.984375 6.546875 39.984375 10.03125 
Q 44 13.53125 44 18.75 
Q 44 29.734375 28.8125 35.25 
" id="MicrosoftYaHei-38"/>
      </defs>
      <g transform="translate(435.588674623 403.531918085)rotate(-45.0)scale(0.12 -0.12)">
       <use xlink:href="#MicrosoftYaHei-30"/>
       <use x="58.642578125" xlink:href="#MicrosoftYaHei-37"/>
       <use x="117.28515625" xlink:href="#MicrosoftYaHei-2d"/>
       <use x="160.546875" xlink:href="#MicrosoftYaHei-31"/>
       <use x="219.189453125" xlink:href="#MicrosoftYaHei-38"/>
       <use x="277.83203125" xlink:href="#MicrosoftYaHei-2d"/>
       <use x="321.09375" xlink:href="#MicrosoftYaHei-32"/>
       <use x="379.736328125" xlink:href="#MicrosoftYaHei-30"/>
       <use x="438.37890625" xlink:href="#MicrosoftYaHei-31"/>
       <use x="497.021484375" xlink:href="#MicrosoftYaHei-36"/>
      </g>
     </g>
    </g>
    <g id="xtick_6">
     <g id="line2d_39">
      <defs>
       <path d="M 0 0 
L 0 -2 
" id="m259c5042e8" style="stroke:#000000;stroke-width:0.5;"/>
      </defs>
      <g>
       <use style="stroke:#000000;stroke-width:0.5;" x="76.37647059" xlink:href="#m259c5042e8" y="345.6"/>
      </g>
     </g>
     <g id="line2d_40">
      <defs>
       <path d="M 0 0 
L 0 2 
" id="m75580d2df4" style="stroke:#000000;stroke-width:0.5;"/>
      </defs>
      <g>
       <use style="stroke:#000000;stroke-width:0.5;" x="76.37647059" xlink:href="#m75580d2df4" y="43.2"/>
      </g>
     </g>
    </g>
    <g id="xtick_7">
     <g id="line2d_41">
      <g>
       <use style="stroke:#000000;stroke-width:0.5;" x="90.9647058845" xlink:href="#m259c5042e8" y="345.6"/>
      </g>
     </g>
     <g id="line2d_42">
      <g>
       <use style="stroke:#000000;stroke-width:0.5;" x="90.9647058845" xlink:href="#m75580d2df4" y="43.2"/>
      </g>
     </g>
    </g>
    <g id="xtick_8">
     <g id="line2d_43">
      <g>
       <use style="stroke:#000000;stroke-width:0.5;" x="105.552941179" xlink:href="#m259c5042e8" y="345.6"/>
      </g>
     </g>
     <g id="line2d_44">
      <g>
       <use style="stroke:#000000;stroke-width:0.5;" x="105.552941179" xlink:href="#m75580d2df4" y="43.2"/>
      </g>
     </g>
    </g>
    <g id="xtick_9">
     <g id="line2d_45">
      <g>
       <use style="stroke:#000000;stroke-width:0.5;" x="120.141176471" xlink:href="#m259c5042e8" y="345.6"/>
      </g>
     </g>
     <g id="line2d_46">
      <g>
       <use style="stroke:#000000;stroke-width:0.5;" x="120.141176471" xlink:href="#m75580d2df4" y="43.2"/>
      </g>
     </g>
    </g>
    <g id="xtick_10">
     <g id="line2d_47">
      <g>
       <use style="stroke:#000000;stroke-width:0.5;" x="134.729411766" xlink:href="#m259c5042e8" y="345.6"/>
      </g>
     </g>
     <g id="line2d_48">
      <g>
       <use style="stroke:#000000;stroke-width:0.5;" x="134.729411766" xlink:href="#m75580d2df4" y="43.2"/>
      </g>
     </g>
    </g>
    <g id="xtick_11">
     <g id="line2d_49">
      <g>
       <use style="stroke:#000000;stroke-width:0.5;" x="149.31764706" xlink:href="#m259c5042e8" y="345.6"/>
      </g>
     </g>
     <g id="line2d_50">
      <g>
       <use style="stroke:#000000;stroke-width:0.5;" x="149.31764706" xlink:href="#m75580d2df4" y="43.2"/>
      </g>
     </g>
    </g>
    <g id="xtick_12">
     <g id="line2d_51">
      <g>
       <use style="stroke:#000000;stroke-width:0.5;" x="163.905882355" xlink:href="#m259c5042e8" y="345.6"/>
      </g>
     </g>
     <g id="line2d_52">
      <g>
       <use style="stroke:#000000;stroke-width:0.5;" x="163.905882355" xlink:href="#m75580d2df4" y="43.2"/>
      </g>
     </g>
    </g>
    <g id="xtick_13">
     <g id="line2d_53">
      <g>
       <use style="stroke:#000000;stroke-width:0.5;" x="178.494117649" xlink:href="#m259c5042e8" y="345.6"/>
      </g>
     </g>
     <g id="line2d_54">
      <g>
       <use style="stroke:#000000;stroke-width:0.5;" x="178.494117649" xlink:href="#m75580d2df4" y="43.2"/>
      </g>
     </g>
    </g>
    <g id="xtick_14">
     <g id="line2d_55">
      <g>
       <use style="stroke:#000000;stroke-width:0.5;" x="193.082352944" xlink:href="#m259c5042e8" y="345.6"/>
      </g>
     </g>
     <g id="line2d_56">
      <g>
       <use style="stroke:#000000;stroke-width:0.5;" x="193.082352944" xlink:href="#m75580d2df4" y="43.2"/>
      </g>
     </g>
    </g>
    <g id="xtick_15">
     <g id="line2d_57">
      <g>
       <use style="stroke:#000000;stroke-width:0.5;" x="207.670588236" xlink:href="#m259c5042e8" y="345.6"/>
      </g>
     </g>
     <g id="line2d_58">
      <g>
       <use style="stroke:#000000;stroke-width:0.5;" x="207.670588236" xlink:href="#m75580d2df4" y="43.2"/>
      </g>
     </g>
    </g>
    <g id="xtick_16">
     <g id="line2d_59">
      <g>
       <use style="stroke:#000000;stroke-width:0.5;" x="222.258823531" xlink:href="#m259c5042e8" y="345.6"/>
      </g>
     </g>
     <g id="line2d_60">
      <g>
       <use style="stroke:#000000;stroke-width:0.5;" x="222.258823531" xlink:href="#m75580d2df4" y="43.2"/>
      </g>
     </g>
    </g>
    <g id="xtick_17">
     <g id="line2d_61">
      <g>
       <use style="stroke:#000000;stroke-width:0.5;" x="236.847058825" xlink:href="#m259c5042e8" y="345.6"/>
      </g>
     </g>
     <g id="line2d_62">
      <g>
       <use style="stroke:#000000;stroke-width:0.5;" x="236.847058825" xlink:href="#m75580d2df4" y="43.2"/>
      </g>
     </g>
    </g>
    <g id="xtick_18">
     <g id="line2d_63">
      <g>
       <use style="stroke:#000000;stroke-width:0.5;" x="251.43529412" xlink:href="#m259c5042e8" y="345.6"/>
      </g>
     </g>
     <g id="line2d_64">
      <g>
       <use style="stroke:#000000;stroke-width:0.5;" x="251.43529412" xlink:href="#m75580d2df4" y="43.2"/>
      </g>
     </g>
    </g>
    <g id="xtick_19">
     <g id="line2d_65">
      <g>
       <use style="stroke:#000000;stroke-width:0.5;" x="266.023529414" xlink:href="#m259c5042e8" y="345.6"/>
      </g>
     </g>
     <g id="line2d_66">
      <g>
       <use style="stroke:#000000;stroke-width:0.5;" x="266.023529414" xlink:href="#m75580d2df4" y="43.2"/>
      </g>
     </g>
    </g>
    <g id="xtick_20">
     <g id="line2d_67">
      <g>
       <use style="stroke:#000000;stroke-width:0.5;" x="280.611764709" xlink:href="#m259c5042e8" y="345.6"/>
      </g>
     </g>
     <g id="line2d_68">
      <g>
       <use style="stroke:#000000;stroke-width:0.5;" x="280.611764709" xlink:href="#m75580d2df4" y="43.2"/>
      </g>
     </g>
    </g>
    <g id="xtick_21">
     <g id="line2d_69">
      <g>
       <use style="stroke:#000000;stroke-width:0.5;" x="295.200000001" xlink:href="#m259c5042e8" y="345.6"/>
      </g>
     </g>
     <g id="line2d_70">
      <g>
       <use style="stroke:#000000;stroke-width:0.5;" x="295.200000001" xlink:href="#m75580d2df4" y="43.2"/>
      </g>
     </g>
    </g>
    <g id="xtick_22">
     <g id="line2d_71">
      <g>
       <use style="stroke:#000000;stroke-width:0.5;" x="309.788235296" xlink:href="#m259c5042e8" y="345.6"/>
      </g>
     </g>
     <g id="line2d_72">
      <g>
       <use style="stroke:#000000;stroke-width:0.5;" x="309.788235296" xlink:href="#m75580d2df4" y="43.2"/>
      </g>
     </g>
    </g>
    <g id="xtick_23">
     <g id="line2d_73">
      <g>
       <use style="stroke:#000000;stroke-width:0.5;" x="324.37647059" xlink:href="#m259c5042e8" y="345.6"/>
      </g>
     </g>
     <g id="line2d_74">
      <g>
       <use style="stroke:#000000;stroke-width:0.5;" x="324.37647059" xlink:href="#m75580d2df4" y="43.2"/>
      </g>
     </g>
    </g>
    <g id="xtick_24">
     <g id="line2d_75">
      <g>
       <use style="stroke:#000000;stroke-width:0.5;" x="338.964705884" xlink:href="#m259c5042e8" y="345.6"/>
      </g>
     </g>
     <g id="line2d_76">
      <g>
       <use style="stroke:#000000;stroke-width:0.5;" x="338.964705884" xlink:href="#m75580d2df4" y="43.2"/>
      </g>
     </g>
    </g>
    <g id="xtick_25">
     <g id="line2d_77">
      <g>
       <use style="stroke:#000000;stroke-width:0.5;" x="353.552941179" xlink:href="#m259c5042e8" y="345.6"/>
      </g>
     </g>
     <g id="line2d_78">
      <g>
       <use style="stroke:#000000;stroke-width:0.5;" x="353.552941179" xlink:href="#m75580d2df4" y="43.2"/>
      </g>
     </g>
    </g>
    <g id="xtick_26">
     <g id="line2d_79">
      <g>
       <use style="stroke:#000000;stroke-width:0.5;" x="368.141176473" xlink:href="#m259c5042e8" y="345.6"/>
      </g>
     </g>
     <g id="line2d_80">
      <g>
       <use style="stroke:#000000;stroke-width:0.5;" x="368.141176473" xlink:href="#m75580d2df4" y="43.2"/>
      </g>
     </g>
    </g>
    <g id="xtick_27">
     <g id="line2d_81">
      <g>
       <use style="stroke:#000000;stroke-width:0.5;" x="382.729411766" xlink:href="#m259c5042e8" y="345.6"/>
      </g>
     </g>
     <g id="line2d_82">
      <g>
       <use style="stroke:#000000;stroke-width:0.5;" x="382.729411766" xlink:href="#m75580d2df4" y="43.2"/>
      </g>
     </g>
    </g>
    <g id="xtick_28">
     <g id="line2d_83">
      <g>
       <use style="stroke:#000000;stroke-width:0.5;" x="397.31764706" xlink:href="#m259c5042e8" y="345.6"/>
      </g>
     </g>
     <g id="line2d_84">
      <g>
       <use style="stroke:#000000;stroke-width:0.5;" x="397.31764706" xlink:href="#m75580d2df4" y="43.2"/>
      </g>
     </g>
    </g>
    <g id="xtick_29">
     <g id="line2d_85">
      <g>
       <use style="stroke:#000000;stroke-width:0.5;" x="411.905882355" xlink:href="#m259c5042e8" y="345.6"/>
      </g>
     </g>
     <g id="line2d_86">
      <g>
       <use style="stroke:#000000;stroke-width:0.5;" x="411.905882355" xlink:href="#m75580d2df4" y="43.2"/>
      </g>
     </g>
    </g>
    <g id="xtick_30">
     <g id="line2d_87">
      <g>
       <use style="stroke:#000000;stroke-width:0.5;" x="426.494117649" xlink:href="#m259c5042e8" y="345.6"/>
      </g>
     </g>
     <g id="line2d_88">
      <g>
       <use style="stroke:#000000;stroke-width:0.5;" x="426.494117649" xlink:href="#m75580d2df4" y="43.2"/>
      </g>
     </g>
    </g>
    <g id="xtick_31">
     <g id="line2d_89">
      <g>
       <use style="stroke:#000000;stroke-width:0.5;" x="441.082352944" xlink:href="#m259c5042e8" y="345.6"/>
      </g>
     </g>
     <g id="line2d_90">
      <g>
       <use style="stroke:#000000;stroke-width:0.5;" x="441.082352944" xlink:href="#m75580d2df4" y="43.2"/>
      </g>
     </g>
    </g>
    <g id="xtick_32">
     <g id="line2d_91">
      <g>
       <use style="stroke:#000000;stroke-width:0.5;" x="455.670588238" xlink:href="#m259c5042e8" y="345.6"/>
      </g>
     </g>
     <g id="line2d_92">
      <g>
       <use style="stroke:#000000;stroke-width:0.5;" x="455.670588238" xlink:href="#m75580d2df4" y="43.2"/>
      </g>
     </g>
    </g>
    <g id="xtick_33">
     <g id="line2d_93">
      <g>
       <use style="stroke:#000000;stroke-width:0.5;" x="470.258823531" xlink:href="#m259c5042e8" y="345.6"/>
      </g>
     </g>
     <g id="line2d_94">
      <g>
       <use style="stroke:#000000;stroke-width:0.5;" x="470.258823531" xlink:href="#m75580d2df4" y="43.2"/>
      </g>
     </g>
    </g>
    <g id="xtick_34">
     <g id="line2d_95">
      <g>
       <use style="stroke:#000000;stroke-width:0.5;" x="484.847058825" xlink:href="#m259c5042e8" y="345.6"/>
      </g>
     </g>
     <g id="line2d_96">
      <g>
       <use style="stroke:#000000;stroke-width:0.5;" x="484.847058825" xlink:href="#m75580d2df4" y="43.2"/>
      </g>
     </g>
    </g>
    <g id="xtick_35">
     <g id="line2d_97">
      <g>
       <use style="stroke:#000000;stroke-width:0.5;" x="499.43529412" xlink:href="#m259c5042e8" y="345.6"/>
      </g>
     </g>
     <g id="line2d_98">
      <g>
       <use style="stroke:#000000;stroke-width:0.5;" x="499.43529412" xlink:href="#m75580d2df4" y="43.2"/>
      </g>
     </g>
    </g>
    <g id="xtick_36">
     <g id="line2d_99">
      <g>
       <use style="stroke:#000000;stroke-width:0.5;" x="514.023529414" xlink:href="#m259c5042e8" y="345.6"/>
      </g>
     </g>
     <g id="line2d_100">
      <g>
       <use style="stroke:#000000;stroke-width:0.5;" x="514.023529414" xlink:href="#m75580d2df4" y="43.2"/>
      </g>
     </g>
    </g>
   </g>
   <g id="matplotlib.axis_2">
    <g id="ytick_1">
     <g id="line2d_101">
      <path clip-path="url(#pc80665e3c3)" d="M 72 345.6 
L 518.4 345.6 
" style="fill:none;stroke:#000000;stroke-dasharray:1.000000,3.000000;stroke-dashoffset:0.0;stroke-width:0.5;"/>
     </g>
     <g id="line2d_102">
      <defs>
       <path d="M 0 0 
L 4 0 
" id="m948ed24b14" style="stroke:#000000;stroke-width:0.5;"/>
      </defs>
      <g>
       <use style="stroke:#000000;stroke-width:0.5;" x="72.0" xlink:href="#m948ed24b14" y="345.6"/>
      </g>
     </g>
     <g id="line2d_103">
      <defs>
       <path d="M 0 0 
L -4 0 
" id="mda9d03462a" style="stroke:#000000;stroke-width:0.5;"/>
      </defs>
      <g>
       <use style="stroke:#000000;stroke-width:0.5;" x="518.4" xlink:href="#mda9d03462a" y="345.6"/>
      </g>
     </g>
     <g id="text_6">
      <!-- 14.0 -->
      <defs>
       <path d="M 5.8125 5.03125 
Q 5.8125 7.671875 7.609375 9.46875 
Q 9.421875 11.28125 12.109375 11.28125 
Q 14.84375 11.28125 16.640625 9.453125 
Q 18.453125 7.625 18.453125 5.03125 
Q 18.453125 2.484375 16.640625 0.65625 
Q 14.84375 -1.171875 12.0625 -1.171875 
Q 9.375 -1.171875 7.59375 0.65625 
Q 5.8125 2.484375 5.8125 5.03125 
" id="MicrosoftYaHei-2e"/>
      </defs>
      <g transform="translate(44.0 348.9046875)scale(0.12 -0.12)">
       <use xlink:href="#MicrosoftYaHei-31"/>
       <use x="58.642578125" xlink:href="#MicrosoftYaHei-34"/>
       <use x="117.28515625" xlink:href="#MicrosoftYaHei-2e"/>
       <use x="141.357421875" xlink:href="#MicrosoftYaHei-30"/>
      </g>
     </g>
    </g>
    <g id="ytick_2">
     <g id="line2d_104">
      <path clip-path="url(#pc80665e3c3)" d="M 72 285.12 
L 518.4 285.12 
" style="fill:none;stroke:#000000;stroke-dasharray:1.000000,3.000000;stroke-dashoffset:0.0;stroke-width:0.5;"/>
     </g>
     <g id="line2d_105">
      <g>
       <use style="stroke:#000000;stroke-width:0.5;" x="72.0" xlink:href="#m948ed24b14" y="285.12"/>
      </g>
     </g>
     <g id="line2d_106">
      <g>
       <use style="stroke:#000000;stroke-width:0.5;" x="518.4" xlink:href="#mda9d03462a" y="285.12"/>
      </g>
     </g>
     <g id="text_7">
      <!-- 14.5 -->
      <defs>
       <path d="M 8.640625 11.625 
Q 16.265625 6.640625 24.515625 6.640625 
Q 32.328125 6.640625 37.109375 11 
Q 41.890625 15.375 41.890625 22.609375 
Q 41.890625 29.890625 37.03125 33.890625 
Q 32.171875 37.890625 22.953125 37.890625 
Q 18.5 37.890625 10.984375 37.203125 
L 10.984375 75.640625 
L 48.1875 75.640625 
L 48.1875 67.1875 
L 19.875 67.1875 
L 19.875 45.796875 
Q 24.125 46.046875 26.265625 46.046875 
Q 38.234375 46.046875 44.921875 39.984375 
Q 51.609375 33.9375 51.609375 23.296875 
Q 51.609375 12.3125 44.421875 5.515625 
Q 37.25 -1.265625 24.609375 -1.265625 
Q 14.015625 -1.265625 8.640625 1.859375 
z
" id="MicrosoftYaHei-35"/>
      </defs>
      <g transform="translate(44.0 288.4246875)scale(0.12 -0.12)">
       <use xlink:href="#MicrosoftYaHei-31"/>
       <use x="58.642578125" xlink:href="#MicrosoftYaHei-34"/>
       <use x="117.28515625" xlink:href="#MicrosoftYaHei-2e"/>
       <use x="141.357421875" xlink:href="#MicrosoftYaHei-35"/>
      </g>
     </g>
    </g>
    <g id="ytick_3">
     <g id="line2d_107">
      <path clip-path="url(#pc80665e3c3)" d="M 72 224.64 
L 518.4 224.64 
" style="fill:none;stroke:#000000;stroke-dasharray:1.000000,3.000000;stroke-dashoffset:0.0;stroke-width:0.5;"/>
     </g>
     <g id="line2d_108">
      <g>
       <use style="stroke:#000000;stroke-width:0.5;" x="72.0" xlink:href="#m948ed24b14" y="224.64"/>
      </g>
     </g>
     <g id="line2d_109">
      <g>
       <use style="stroke:#000000;stroke-width:0.5;" x="518.4" xlink:href="#mda9d03462a" y="224.64"/>
      </g>
     </g>
     <g id="text_8">
      <!-- 15.0 -->
      <g transform="translate(44.0 227.9446875)scale(0.12 -0.12)">
       <use xlink:href="#MicrosoftYaHei-31"/>
       <use x="58.642578125" xlink:href="#MicrosoftYaHei-35"/>
       <use x="117.28515625" xlink:href="#MicrosoftYaHei-2e"/>
       <use x="141.357421875" xlink:href="#MicrosoftYaHei-30"/>
      </g>
     </g>
    </g>
    <g id="ytick_4">
     <g id="line2d_110">
      <path clip-path="url(#pc80665e3c3)" d="M 72 164.16 
L 518.4 164.16 
" style="fill:none;stroke:#000000;stroke-dasharray:1.000000,3.000000;stroke-dashoffset:0.0;stroke-width:0.5;"/>
     </g>
     <g id="line2d_111">
      <g>
       <use style="stroke:#000000;stroke-width:0.5;" x="72.0" xlink:href="#m948ed24b14" y="164.16"/>
      </g>
     </g>
     <g id="line2d_112">
      <g>
       <use style="stroke:#000000;stroke-width:0.5;" x="518.4" xlink:href="#mda9d03462a" y="164.16"/>
      </g>
     </g>
     <g id="text_9">
      <!-- 15.5 -->
      <g transform="translate(44.0 167.4646875)scale(0.12 -0.12)">
       <use xlink:href="#MicrosoftYaHei-31"/>
       <use x="58.642578125" xlink:href="#MicrosoftYaHei-35"/>
       <use x="117.28515625" xlink:href="#MicrosoftYaHei-2e"/>
       <use x="141.357421875" xlink:href="#MicrosoftYaHei-35"/>
      </g>
     </g>
    </g>
    <g id="ytick_5">
     <g id="line2d_113">
      <path clip-path="url(#pc80665e3c3)" d="M 72 103.68 
L 518.4 103.68 
" style="fill:none;stroke:#000000;stroke-dasharray:1.000000,3.000000;stroke-dashoffset:0.0;stroke-width:0.5;"/>
     </g>
     <g id="line2d_114">
      <g>
       <use style="stroke:#000000;stroke-width:0.5;" x="72.0" xlink:href="#m948ed24b14" y="103.68"/>
      </g>
     </g>
     <g id="line2d_115">
      <g>
       <use style="stroke:#000000;stroke-width:0.5;" x="518.4" xlink:href="#mda9d03462a" y="103.68"/>
      </g>
     </g>
     <g id="text_10">
      <!-- 16.0 -->
      <g transform="translate(44.0 106.9846875)scale(0.12 -0.12)">
       <use xlink:href="#MicrosoftYaHei-31"/>
       <use x="58.642578125" xlink:href="#MicrosoftYaHei-36"/>
       <use x="117.28515625" xlink:href="#MicrosoftYaHei-2e"/>
       <use x="141.357421875" xlink:href="#MicrosoftYaHei-30"/>
      </g>
     </g>
    </g>
    <g id="ytick_6">
     <g id="line2d_116">
      <path clip-path="url(#pc80665e3c3)" d="M 72 43.2 
L 518.4 43.2 
" style="fill:none;stroke:#000000;stroke-dasharray:1.000000,3.000000;stroke-dashoffset:0.0;stroke-width:0.5;"/>
     </g>
     <g id="line2d_117">
      <g>
       <use style="stroke:#000000;stroke-width:0.5;" x="72.0" xlink:href="#m948ed24b14" y="43.2"/>
      </g>
     </g>
     <g id="line2d_118">
      <g>
       <use style="stroke:#000000;stroke-width:0.5;" x="518.4" xlink:href="#mda9d03462a" y="43.2"/>
      </g>
     </g>
     <g id="text_11">
      <!-- 16.5 -->
      <g transform="translate(44.0 46.5046875)scale(0.12 -0.12)">
       <use xlink:href="#MicrosoftYaHei-31"/>
       <use x="58.642578125" xlink:href="#MicrosoftYaHei-36"/>
       <use x="117.28515625" xlink:href="#MicrosoftYaHei-2e"/>
       <use x="141.357421875" xlink:href="#MicrosoftYaHei-35"/>
      </g>
     </g>
    </g>
   </g>
   <g id="text_12">
    <!-- 浦发银行 -->
    <defs>
     <path d="M 90.140625 27.6875 
L 95.125 22.015625 
Q 85.546875 15.28125 76.171875 9.515625 
Q 85.0625 0.140625 99.03125 -3.765625 
Q 96 -7.859375 93.953125 -11.1875 
Q 65.53125 -0.53125 57.234375 30.609375 
L 48.046875 30.609375 
L 48.046875 -1.21875 
Q 55.859375 2.484375 65.140625 7.5625 
Q 65.234375 3.078125 65.625 -0.34375 
Q 58.109375 -3.953125 46.96875 -10.203125 
Q 45.609375 -11.078125 42.875 -13.53125 
L 37.703125 -6.78125 
Q 40.828125 -3.5625 40.828125 0.4375 
L 40.828125 78.375 
L 89.15625 78.375 
L 89.15625 28.171875 
L 82.03125 28.171875 
L 82.03125 30.609375 
L 64.359375 30.609375 
Q 67.1875 21.4375 72.078125 14.5 
Q 81.640625 20.75 90.140625 27.6875 
M 36.53125 9.125 
Q 36.625 4.828125 37.015625 1.21875 
Q 29.890625 -2.78125 21.578125 -8.453125 
Q 19.140625 -10.203125 16.890625 -12.453125 
L 11.71875 -5.71875 
Q 14.9375 -2.59375 14.9375 1.609375 
L 14.9375 23.296875 
L 1.5625 23.296875 
L 1.5625 30.03125 
L 14.9375 30.03125 
L 14.9375 44.28125 
L 8.296875 44.28125 
L 8.296875 50.921875 
Q 6.734375 48.484375 5.078125 46.234375 
Q 3.21875 49.75 0.875 52.875 
Q 10.453125 66.265625 16.015625 83.0625 
L 23.140625 80.71875 
Q 20.703125 74.078125 17.78125 68.015625 
L 35.75 68.015625 
L 35.75 61.28125 
L 14.359375 61.28125 
Q 11.53125 55.90625 8.296875 51.03125 
L 33.40625 51.03125 
L 33.40625 44.28125 
L 21.96875 44.28125 
L 21.96875 30.03125 
L 36.140625 30.03125 
L 36.140625 23.296875 
L 21.96875 23.296875 
L 21.96875 0.046875 
Q 28.03125 3.765625 36.53125 9.125 
M 82.03125 37.25 
L 82.03125 51.3125 
L 48.046875 51.3125 
L 48.046875 37.25 
z
M 82.03125 71.734375 
L 48.046875 71.734375 
L 48.046875 57.765625 
L 82.03125 57.765625 
z
" id="MicrosoftYaHei-94f6"/>
     <path d="M 14.75 61.078125 
L 35.40625 61.078125 
Q 37.796875 71.296875 39.453125 83.34375 
L 47.75 82.28125 
Q 46.09375 71.1875 43.703125 61.078125 
L 97.65625 61.078125 
L 97.65625 53.859375 
L 41.84375 53.859375 
Q 40.09375 47.40625 37.984375 41.453125 
L 86.421875 41.453125 
L 86.421875 34.71875 
Q 79.984375 18.75 66.359375 7.125 
Q 80.078125 -1.171875 98.34375 -4.546875 
Q 93.953125 -9.421875 91.5 -12.75 
Q 75.875 -7.5625 60.0625 2.390625 
Q 47.359375 -5.953125 23.734375 -13.421875 
Q 21 -9.515625 17.875 -6.203125 
Q 41.890625 0.046875 53.765625 7.03125 
Q 40.921875 18.015625 35.453125 34.71875 
Q 24.75 7.953125 6.34375 -9.234375 
Q 3.71875 -5.515625 1.171875 -2.59375 
Q 23.1875 17.28125 33.546875 53.859375 
L 6.453125 53.859375 
L 6.453125 61.1875 
Q 10.453125 70.453125 13.765625 79.828125 
L 21.6875 77.6875 
Q 18.265625 69.09375 14.75 61.078125 
M 77.828125 34.71875 
L 42.53125 34.71875 
Q 46.921875 21.1875 59.96875 11.421875 
Q 72.609375 21.875 77.828125 34.71875 
M 62.796875 76.609375 
L 67.09375 82.078125 
Q 76.65625 76.03125 85.453125 69.484375 
L 80.171875 63.140625 
Q 71.6875 70.359375 62.796875 76.609375 
" id="MicrosoftYaHei-53d1"/>
     <path d="M 38.765625 -12.546875 
L 31.34375 -12.546875 
L 31.34375 52.6875 
L 58.5 52.6875 
L 58.5 62.84375 
L 27.9375 62.84375 
L 27.9375 69.484375 
L 58.5 69.484375 
L 58.5 83.546875 
L 65.921875 83.546875 
L 65.921875 69.484375 
L 98.046875 69.484375 
L 98.046875 62.84375 
L 65.921875 62.84375 
L 65.921875 52.6875 
L 94.140625 52.6875 
L 94.140625 -0.046875 
Q 94.140625 -12.0625 83.6875 -12.0625 
Q 78.515625 -12.0625 71.6875 -11.96875 
Q 71.09375 -8.25 70.21875 -4.34375 
Q 76.265625 -4.828125 81.25 -4.828125 
Q 86.71875 -4.828125 86.71875 1.125 
L 86.71875 10.296875 
L 65.921875 10.296875 
L 65.921875 -10.296875 
L 58.5 -10.296875 
L 58.5 10.296875 
L 38.765625 10.296875 
z
M 4.5 -9.515625 
Q 10.359375 8.0625 14.546875 28.265625 
Q 18.84375 26.421875 22.46875 25.25 
Q 17.875 6.984375 13.09375 -12.15625 
z
M 86.71875 46.234375 
L 65.921875 46.234375 
L 65.921875 34.71875 
L 86.71875 34.71875 
z
M 65.921875 16.75 
L 86.71875 16.75 
L 86.71875 28.265625 
L 65.921875 28.265625 
z
M 38.765625 34.71875 
L 58.5 34.71875 
L 58.5 46.234375 
L 38.765625 46.234375 
z
M 38.765625 16.75 
L 58.5 16.75 
L 58.5 28.265625 
L 38.765625 28.265625 
z
M 1.265625 50.734375 
L 6.25 56.296875 
Q 15.328125 50.140625 23.140625 43.703125 
Q 19.53125 39.703125 17.390625 37.453125 
Q 8.5 45.359375 1.265625 50.734375 
M 4.984375 76.515625 
L 10.0625 81.6875 
Q 16.21875 77.09375 25.875 68.703125 
Q 22.5625 65.484375 20.015625 62.9375 
Q 10.15625 72.3125 4.984375 76.515625 
M 73.734375 78.171875 
L 77.34375 83.34375 
Q 84.859375 79.640625 91.3125 75.828125 
L 87.40625 70.0625 
Q 80.765625 74.46875 73.734375 78.171875 
" id="MicrosoftYaHei-6d66"/>
     <path d="M 36.921875 46.53125 
L 98.734375 46.53125 
L 98.734375 39.203125 
L 79.78125 39.203125 
L 79.78125 1.03125 
Q 79.78125 -11.078125 67.578125 -11.078125 
Q 59.375 -11.078125 50.875 -10.984375 
Q 50.296875 -7.078125 49.421875 -2.203125 
Q 57.03125 -2.984375 64.75 -2.984375 
Q 71.484375 -2.984375 71.484375 3.65625 
L 71.484375 39.203125 
L 36.921875 39.203125 
z
M 1.5625 24.65625 
Q 16.703125 37.0625 29.109375 59.515625 
L 35.9375 55.328125 
Q 30.90625 46.625 25.296875 39.0625 
L 25.296875 -12.640625 
L 17.1875 -12.640625 
L 17.1875 29 
Q 11.328125 22.359375 4.984375 16.75 
Q 3.421875 20.84375 1.5625 24.65625 
M 42.578125 76.03125 
L 93.265625 76.03125 
L 93.265625 68.703125 
L 42.578125 68.703125 
z
M 2.046875 55.609375 
Q 17.578125 67.625 27.046875 83.546875 
L 34.078125 79.25 
Q 22.75 61.859375 5.953125 48.09375 
Q 4.203125 51.8125 2.046875 55.609375 
" id="MicrosoftYaHei-884c"/>
    </defs>
    <g transform="translate(266.4 38.2)scale(0.144 -0.144)">
     <use xlink:href="#MicrosoftYaHei-6d66"/>
     <use x="100.0" xlink:href="#MicrosoftYaHei-53d1"/>
     <use x="200.0" xlink:href="#MicrosoftYaHei-94f6"/>
     <use x="300.0" xlink:href="#MicrosoftYaHei-884c"/>
    </g>
   </g>
  </g>
 </g>
 <defs>
  <clipPath id="pc80665e3c3">
   <rect height="302.4" width="446.4" x="72.0" y="43.2"/>
  </clipPath>
 </defs>
</svg>
